<svg width="12" height="16" viewBox="0 0 12 16" fill="none" xmlns="http://www.w3.org/2000/svg">
<path d="M3.663 11H8.336M2.464 9.53598C1.76487 8.83667 1.2888 7.94575 1.09598 6.97588C0.90316 6.00601 1.00225 5.00075 1.38073 4.08719C1.75921 3.17364 2.40007 2.39282 3.22229 1.84348C4.04451 1.29413 5.01115 1.00092 6 1.00092C6.98885 1.00092 7.9555 1.29413 8.77772 1.84348C9.59993 2.39282 10.2408 3.17364 10.6193 4.08719C10.9978 5.00075 11.0968 6.00601 10.904 6.97588C10.7112 7.94575 10.2351 8.83667 9.536 9.53598L8.988 10.083C8.67471 10.3963 8.42621 10.7683 8.25669 11.1777C8.08717 11.5871 7.99994 12.0259 8 12.469V13C8 13.5304 7.78929 14.0391 7.41422 14.4142C7.03914 14.7893 6.53044 15 6 15C5.46957 15 4.96086 14.7893 4.58579 14.4142C4.21072 14.0391 4 13.5304 4 13V12.469C4 11.574 3.644 10.715 3.012 10.083L2.464 9.53598Z" stroke="black" stroke-width="1.5" stroke-linecap="round" stroke-linejoin="round"/>
</svg>
